<?xml version="1.0" encoding="UTF-8" standalone="no"?>
<!DOCTYPE svg PUBLIC "-//W3C//DTD SVG 1.1//EN" "http://www.w3.org/Graphics/SVG/1.1/DTD/svg11.dtd">
<svg width="100%" height="100%" viewBox="0 0 512 512" version="1.1" xmlns="http://www.w3.org/2000/svg" xmlns:xlink="http://www.w3.org/1999/xlink" xml:space="preserve" xmlns:serif="http://www.serif.com/" style="fill-rule:evenodd;clip-rule:evenodd;stroke-linecap:round;stroke-linejoin:round;stroke-miterlimit:1.5;">
    <g transform="matrix(1,0,0,1,254.792,-15.2389)">
        <path d="M175.744,379.5L175.744,442.533C175.744,462.023 159.92,477.846 140.431,477.846L133.468,477.846C114.527,477.846 99.15,462.469 99.15,443.528L99.15,386.712C99.15,363.585 117.926,344.809 141.052,344.809C160.199,344.809 175.744,360.353 175.744,379.5Z"/>
    </g>
    <g transform="matrix(1,0,0,1,-17.4058,-13.6792)">
        <path d="M175.744,379.5L175.744,442.533C175.744,462.023 159.92,477.846 140.431,477.846L133.468,477.846C114.527,477.846 99.15,462.469 99.15,443.528L99.15,386.712C99.15,363.585 117.926,344.809 141.052,344.809C160.199,344.809 175.744,360.353 175.744,379.5Z"/>
    </g>
    <g transform="matrix(1,0,0,1,0.907319,-7.60136)">
        <path d="M90.313,220.864L41.169,220.864C38.679,216.862 37.368,212.321 37.368,207.699C37.368,193.168 50.081,181.37 65.741,181.37C81.401,181.37 94.115,193.168 94.115,207.699C94.115,212.321 92.804,216.862 90.313,220.864Z" style="stroke:black;stroke-width:4.32px;"/>
    </g>
    <g transform="matrix(1,0,0,1,381.791,-5.72086)">
        <path d="M90.313,220.864L41.169,220.864C38.679,216.862 37.368,212.321 37.368,207.699C37.368,193.168 50.081,181.37 65.741,181.37C81.401,181.37 94.115,193.168 94.115,207.699C94.115,212.321 92.804,216.862 90.313,220.864Z" style="stroke:black;stroke-width:4.32px;"/>
    </g>
    <g transform="matrix(1.63287,0,0,1.51299,-214.824,-98.3276)">
        <path d="M416.782,323.876C405.381,338.14 178.279,341.024 161.286,323.269C153.247,314.87 164.812,225.036 182.724,211.849C201.29,198.181 197.862,120.017 218.048,111.544C257.777,94.869 321.788,98.961 356.073,111.544C377.047,119.242 378.878,196.724 394.155,210.846C408.392,224.006 423.608,315.337 416.782,323.876Z" style="fill:rgb(34,114,255);"/>
        <clipPath id="_clip1">
            <path d="M416.782,323.876C405.381,338.14 178.279,341.024 161.286,323.269C153.247,314.87 164.812,225.036 182.724,211.849C201.29,198.181 197.862,120.017 218.048,111.544C257.777,94.869 321.788,98.961 356.073,111.544C377.047,119.242 378.878,196.724 394.155,210.846C408.392,224.006 423.608,315.337 416.782,323.876Z"/>
        </clipPath>
        <g clip-path="url(#_clip1)">
            <g transform="matrix(0.696298,0,0,0.653672,98.2505,74.0616)">
                <path d="M399.318,202.075L147.359,202.075C147.359,202.075 153.876,165.845 160.151,130.969C164.185,108.546 165.425,84.875 173.697,77.744C197.881,56.896 232.284,54.417 266.421,53.704C306.513,52.865 346.33,57.205 370.155,77.744C379.677,85.952 381.116,107.819 385.587,130.969C392.182,165.125 399.318,202.075 399.318,202.075Z" style="fill:white;"/>
                <clipPath id="_clip2">
                    <path d="M399.318,202.075L147.359,202.075C147.359,202.075 153.876,165.845 160.151,130.969C164.185,108.546 165.425,84.875 173.697,77.744C197.881,56.896 232.284,54.417 266.421,53.704C306.513,52.865 346.33,57.205 370.155,77.744C379.677,85.952 381.116,107.819 385.587,130.969C392.182,165.125 399.318,202.075 399.318,202.075Z"/>
                </clipPath>
                <g clip-path="url(#_clip2)">
                    <g transform="matrix(0.715785,0.00565524,-0.0051862,0.867527,89.036,-6.35287)">
                        <path d="M336.368,183.732C377.93,183.732 411.673,214.404 411.673,252.184C411.673,289.964 377.93,320.636 336.368,320.636C294.806,320.636 261.062,289.964 261.062,252.184C261.062,214.404 294.806,183.732 336.368,183.732ZM336.368,188.307C375.152,188.307 406.641,216.929 406.641,252.184C406.641,287.439 375.152,316.061 336.368,316.061C297.583,316.061 266.095,287.439 266.095,252.184C266.095,216.929 297.583,188.307 336.368,188.307Z" style="stroke:black;stroke-width:5.17px;"/>
                    </g>
                </g>
                <path d="M399.318,202.075L147.359,202.075C147.359,202.075 153.876,165.845 160.151,130.969C164.185,108.546 165.425,84.875 173.697,77.744C197.881,56.896 232.284,54.417 266.421,53.704C306.513,52.865 346.33,57.205 370.155,77.744C379.677,85.952 381.116,107.819 385.587,130.969C392.182,165.125 399.318,202.075 399.318,202.075Z" style="fill:none;stroke:black;stroke-width:4.06px;"/>
            </g>
            <g transform="matrix(0.612419,0,0,0.660944,131.796,72.9802)">
                <ellipse cx="123.302" cy="276.746" rx="37.213" ry="37.708" style="fill:rgb(247,255,0);"/>
                <clipPath id="_clip3">
                    <ellipse cx="123.302" cy="276.746" rx="37.213" ry="37.708"/>
                </clipPath>
                <g clip-path="url(#_clip3)">
                    <g transform="matrix(-0.00637457,0.99998,-0.99998,-0.00637457,428.768,167.992)">
                        <path d="M95.059,273.32C91.095,280.873 87.877,292.776 87.877,305.688C87.877,318.6 91.095,330.504 95.059,338.057C81.845,338.057 71.117,323.553 71.117,305.688C71.117,287.824 81.845,273.32 95.059,273.32Z" style="stroke:black;stroke-width:4.32px;"/>
                    </g>
                </g>
                <ellipse cx="123.302" cy="276.746" rx="37.213" ry="37.708" style="fill:none;stroke:black;stroke-width:4.32px;"/>
            </g>
            <g transform="matrix(0.612419,0,0,0.660944,294.189,71.3159)">
                <ellipse cx="123.302" cy="276.746" rx="37.213" ry="37.708" style="fill:rgb(247,255,0);"/>
                <clipPath id="_clip4">
                    <ellipse cx="123.302" cy="276.746" rx="37.213" ry="37.708"/>
                </clipPath>
                <g clip-path="url(#_clip4)">
                    <g transform="matrix(-0.00637457,0.99998,-0.99998,-0.00637457,429.545,168.959)">
                        <path d="M95.059,273.32C91.095,280.873 87.877,292.776 87.877,305.688C87.877,318.6 91.095,330.504 95.059,338.057C81.845,338.057 71.117,323.553 71.117,305.688C71.117,287.824 81.845,273.32 95.059,273.32Z" style="stroke:black;stroke-width:4.32px;"/>
                    </g>
                </g>
                <ellipse cx="123.302" cy="276.746" rx="37.213" ry="37.708" style="fill:none;stroke:black;stroke-width:4.17px;"/>
            </g>
            <g transform="matrix(0.612419,0,0,0.660944,125.578,71.7306)">
                <path d="M344.116,337.954L344.116,341.308C344.116,351.821 335.581,360.356 325.068,360.356L209.694,360.356C199.478,360.356 191.183,352.061 191.183,341.844C191.183,329.37 201.311,319.242 213.786,319.242L325.404,319.242C335.731,319.242 344.116,327.627 344.116,337.954Z" style="fill:rgb(40,40,40);"/>
            </g>
        </g>
        <path d="M416.782,323.876C405.381,338.14 178.279,341.024 161.286,323.269C153.247,314.87 164.812,225.036 182.724,211.849C201.29,198.181 197.862,120.017 218.048,111.544C257.777,94.869 321.788,98.961 356.073,111.544C377.047,119.242 378.878,196.724 394.155,210.846C408.392,224.006 423.608,315.337 416.782,323.876Z" style="fill:none;stroke:black;stroke-width:2.75px;"/>
    </g>
    <g transform="matrix(0.640447,0.196735,-0.188062,0.612213,174.415,-43.3753)">
        <rect x="278.678" y="23.158" width="207.907" height="303.43" style="fill:white;"/>
        <g transform="matrix(1.17685,-0.383694,0.36151,1.24907,-118.826,101.55)">
            <path d="M284.961,245.723C281.309,252.338 289.754,242.956 295.311,247.206C306.049,255.417 307.171,252.251 320.52,251.695C332.399,251.2 329.885,261.747 338.476,259.292C344.305,257.627 345.465,255.271 348.836,260.328C352.872,266.382 354.489,262.4 361.613,262.4C368.913,262.4 366.975,272.734 377.498,270.342C388.506,267.84 392.711,281.331 403.051,276.558C406.828,274.815 406.497,276.606 410.648,279.321C417.407,283.74 422.544,280.973 423.08,281.047" style="fill:none;stroke:black;stroke-width:8.16px;"/>
        </g>
        <g transform="matrix(1.17685,-0.383694,0.36151,1.24907,-118.826,101.55)">
            <path d="M289.357,213.559C288.269,213.829 288.501,214.083 285.297,218.889C289.443,216.356 290.657,214.091 293.93,219.235C296.037,222.545 319.18,217.196 323.628,223.033C325.094,224.958 324.409,231.147 332.606,227.868C340.657,224.647 340.194,223.634 344.692,224.069C345.036,224.103 367.714,242.011 372.663,238.918C384.253,231.674 380.524,243.057 384.749,246.861C389.993,251.58 400.28,232.509 418.591,257.565" style="fill:none;stroke:black;stroke-width:8.16px;"/>
        </g>
        <g transform="matrix(1.17685,-0.383694,0.36151,1.24907,-118.826,101.55)">
            <path d="M299.455,184.357C299.937,183.616 304.952,175.901 306.361,175.724C307.346,175.601 306.23,176.302 303.599,187.811C314.969,180.119 314.356,178.885 318.448,179.178C323.264,179.522 316.334,185.942 321.21,186.429C323.627,186.671 333.529,184.067 336.404,187.465C350.436,204.048 358.818,195.498 365.411,197.825C367.525,198.571 365.46,201.932 389.584,211.983C390.208,212.243 390.146,212.082 396.49,210.602C412.548,206.855 410.55,221.44 414.447,220.271C419.241,218.832 419.325,217.537 423.425,220.271" style="fill:none;stroke:black;stroke-width:8.16px;"/>
        </g>
        <g transform="matrix(1.17685,-0.383694,0.36151,1.24907,-118.826,101.55)">
            <path d="M307.743,152.933C313.888,144.739 315.34,145.569 315.34,146.372C315.34,149.042 313.826,151.688 314.304,154.314C314.499,155.385 314.919,154.041 326.735,148.789C326.818,149.452 327.771,157.077 327.771,157.077C335.719,157.96 335.912,160.604 342.966,157.077C351.005,153.057 348.364,159.553 348.836,161.911C349.37,164.582 360.504,153.045 360.232,161.221C360.066,166.183 355.781,169.601 360.577,168.473C365.504,167.313 370.858,162.144 378.879,171.58C385.38,179.229 391.396,170.571 395.8,179.868C397.126,182.669 397.783,185.772 399.253,188.501C399.667,189.27 407.388,185.913 408.577,186.429C410.568,187.295 411.976,189.435 414.102,189.883C416.59,190.406 419.211,188.668 421.699,189.192C427.928,196.234 433.654,204.629 436.548,191.609" style="fill:none;stroke:black;stroke-width:8.16px;"/>
        </g>
        <g transform="matrix(1.17685,-0.383694,0.36151,1.24907,-118.826,101.55)">
            <path d="M323.279,115.758C326.835,107.469 328.933,109.176 334.333,104.933C334.003,105.724 330.448,114.257 330.534,114.948C330.791,117.001 331.907,115.844 344.692,113.221C341.751,119.637 337.437,123.409 342.62,121.854C350.837,119.389 354.559,114.512 355.397,122.89C356.054,129.462 374.858,117.662 375.426,127.034C375.91,135.017 374.86,136.156 377.152,136.012C383.686,135.604 391,122.34 392.001,136.358C392.183,138.91 399.356,131.393 404.433,137.739C404.765,138.154 405.511,142.962 409.613,140.502C418.305,135.286 417.379,141.527 419.627,142.919C426.803,143.876 426.493,143.912 433.44,146.027C434.371,146.31 434.329,145.925 445.526,144.645L442.763,147.753" style="fill:none;stroke:black;stroke-width:8.16px;"/>
        </g>
        <g transform="matrix(0.974513,-0.00482992,0.004617,1.01946,87.4655,-268.708)">
            <g transform="matrix(50,0,0,50,394.327,342.812)">
            </g>
            <text x="211.832px" y="342.812px" style="font-family:'Arial-BoldMT', 'Arial', sans-serif;font-weight:700;font-size:50px;stroke:white;stroke-width:1.53px;stroke-linecap:butt;stroke-miterlimit:2;">SER<tspan x="313.737px 347.086px " y="342.812px 342.812px ">VI</tspan>S</text>
        </g>
        <rect x="278.678" y="23.158" width="207.907" height="303.43" style="fill:none;stroke:black;stroke-width:9.98px;"/>
    </g>
</svg>
